<svg width="112" height="66" viewBox="0 0 112 66" fill="none" xmlns="http://www.w3.org/2000/svg">
<rect x="73.5" y="35" width="12" height="35" transform="rotate(-180 73.5 35)" fill="white"/>
<rect x="58.5" y="35" width="8" height="35" transform="rotate(-180 58.5 35)" fill="white"/>
<rect x="47.5" y="35" width="4" height="35" transform="rotate(-180 47.5 35)" fill="white"/>
<rect x="40.5" y="35" width="2" height="35" transform="rotate(-180 40.5 35)" fill="white"/>
<path d="M4.60156 61H1.79883V46.9961H4.60156V61ZM20.4102 61H17.4121L12.0117 51.7812V61H9.20898V46.9961H12.207L17.6074 56.2246V46.9961H20.4102V61ZM30.8965 61H28.1035V49.7988H23.8945V46.9961H35.0957V49.7988H30.8965V61ZM48.1797 61H38.5801V46.9961H48.1797V49.7988H41.3828V52.6016H45.9824V55.4043H41.3828V58.1973H48.1797V61ZM54.9453 49.7988V55.4043H57.748C58.1322 55.4043 58.4935 55.3327 58.832 55.1895C59.1706 55.0397 59.4668 54.8379 59.7207 54.584C59.9746 54.3301 60.1732 54.0339 60.3164 53.6953C60.4661 53.3503 60.541 52.9857 60.541 52.6016C60.541 52.2174 60.4661 51.8561 60.3164 51.5176C60.1732 51.1725 59.9746 50.873 59.7207 50.6191C59.4668 50.3652 59.1706 50.1667 58.832 50.0234C58.4935 49.8737 58.1322 49.7988 57.748 49.7988H54.9453ZM54.9453 61H52.1426V46.9961H57.748C58.2624 46.9961 58.7572 47.0645 59.2324 47.2012C59.7077 47.3314 60.1504 47.5202 60.5605 47.7676C60.9772 48.0085 61.3548 48.3014 61.6934 48.6465C62.0384 48.985 62.3314 49.3626 62.5723 49.7793C62.8197 50.196 63.0085 50.6419 63.1387 51.1172C63.2754 51.5924 63.3438 52.0872 63.3438 52.6016C63.3438 53.0833 63.2819 53.5521 63.1582 54.0078C63.041 54.4635 62.8685 54.8965 62.6406 55.3066C62.4193 55.7168 62.1458 56.0944 61.8203 56.4395C61.4948 56.7845 61.1302 57.084 60.7266 57.3379L62.2793 61H59.3008L58.0801 58.1777L54.9453 58.1973V61ZM77.7559 46.9961L73.1562 61H70.3535L65.7734 46.9961H68.957L71.75 56.3418L74.5527 46.9961H77.7559ZM89.0332 55.4043V52.6016C89.0332 52.2174 88.9583 51.8561 88.8086 51.5176C88.6654 51.1725 88.4668 50.873 88.2129 50.6191C87.959 50.3652 87.6595 50.1667 87.3145 50.0234C86.9759 49.8737 86.6146 49.7988 86.2305 49.7988C85.8464 49.7988 85.4818 49.8737 85.1367 50.0234C84.7982 50.1667 84.502 50.3652 84.248 50.6191C83.9941 50.873 83.7923 51.1725 83.6426 51.5176C83.4993 51.8561 83.4277 52.2174 83.4277 52.6016V55.4043H89.0332ZM91.8359 61H89.0332V58.1973H83.4277V61H80.6348V52.6016C80.6348 51.8268 80.7812 51.1009 81.0742 50.4238C81.3672 49.7402 81.7643 49.1445 82.2656 48.6367C82.7734 48.1289 83.3659 47.7285 84.043 47.4355C84.7266 47.1426 85.4557 46.9961 86.2305 46.9961C87.0052 46.9961 87.7311 47.1426 88.4082 47.4355C89.0918 47.7285 89.6875 48.1289 90.1953 48.6367C90.7031 49.1445 91.1035 49.7402 91.3965 50.4238C91.6895 51.1009 91.8359 51.8268 91.8359 52.6016V61ZM106.072 61H96.2676V46.9961H99.0703V58.1973H106.072V61Z" fill="white"/>
</svg>
